<svg width="206" height="71" viewBox="0 0 206 71" fill="none" xmlns="http://www.w3.org/2000/svg">
    <path d="M36.6659 25.0985C35.2517 25.1031 33.8549 25.41 32.5691 25.9988C31.2833 26.5876 30.1383 27.4446 29.211 28.5123L23.3933 25.1523C23.755 24.1327 23.9462 23.0605 23.9592 21.9787C23.9852 19.6127 23.179 17.3127 21.6812 15.4809C20.1835 13.649 18.0896 12.4018 15.7656 11.9572C13.4416 11.5127 11.0352 11.899 8.96712 13.0487C6.89904 14.1984 5.30079 16.0384 4.45174 18.247C3.60269 20.4556 3.55685 22.8923 4.32222 25.1313C5.08759 27.3703 6.6155 29.269 8.63887 30.4957C10.6622 31.7224 13.0524 32.199 15.3915 31.8421C17.7306 31.4853 19.8699 30.3177 21.4355 28.5435L27.253 31.9035C26.8913 32.9232 26.7001 33.9956 26.6871 35.0775C26.7 36.1594 26.8912 37.2317 27.253 38.2514L21.4346 41.61C19.8867 39.8775 17.7803 38.7426 15.482 38.4029C13.1838 38.0632 10.8391 38.5402 8.85625 39.7508C6.87335 40.9614 5.37776 42.829 4.62977 45.0286C3.88179 47.2281 3.92879 49.6203 4.76258 51.7888C5.59637 53.9572 7.16417 55.7647 9.19308 56.8965C11.222 58.0283 13.5835 58.4128 15.8667 57.9831C18.1499 57.5534 20.21 56.3366 21.6887 54.5447C23.1673 52.7527 23.9708 50.499 23.9592 48.1758C23.9462 47.0936 23.755 46.0209 23.3931 45.0009L29.211 41.6421C30.3118 42.8918 31.7084 43.8455 33.273 44.4159C34.8377 44.9864 36.5204 45.1554 38.1672 44.9075C39.814 44.6597 41.3724 44.0028 42.6998 42.9971C44.0272 41.9913 45.0812 40.6687 45.7654 39.1504C46.4496 37.6321 46.7421 35.9664 46.6163 34.3058C46.4904 32.6452 45.9502 31.0426 45.045 29.6447C44.1397 28.2468 42.8984 27.0983 41.4346 26.304C39.9708 25.5098 38.3313 25.0953 36.6659 25.0985ZM13.9804 28.0422C12.7811 28.0422 11.6088 27.6865 10.6116 27.0202C9.61449 26.354 8.83732 25.4069 8.3784 24.2989C7.91948 23.191 7.79942 21.9718 8.0334 20.7956C8.26739 19.6193 8.84491 18.5389 9.69293 17.6909C10.541 16.8429 11.6214 16.2654 12.7976 16.0315C13.9738 15.7975 15.193 15.9176 16.301 16.3766C17.409 16.8356 18.356 17.6128 19.0222 18.6099C19.6885 19.6071 20.0441 20.7794 20.0441 21.9787C20.0421 23.5863 19.4027 25.1275 18.2659 26.2642C17.1292 27.4009 15.588 28.0403 13.9804 28.0422ZM13.9804 54.2392C12.7811 54.2392 11.6088 53.8835 10.6116 53.2172C9.61449 52.5509 8.83732 51.6039 8.3784 50.4959C7.91948 49.388 7.79942 48.1688 8.0334 46.9926C8.26739 45.8163 8.84491 44.7359 9.69293 43.8879C10.541 43.0399 11.6214 42.4624 12.7976 42.2285C13.9738 41.9945 15.193 42.1146 16.301 42.5736C17.409 43.0326 18.356 43.8098 19.0222 44.8069C19.6885 45.8041 20.0441 46.9764 20.0441 48.1757C20.0421 49.7833 19.4027 51.3245 18.2659 52.4612C17.1292 53.5979 15.588 54.2373 13.9804 54.2392ZM36.6659 41.1407C35.4667 41.1403 34.2945 40.7844 33.2976 40.1179C32.3007 39.4514 31.5238 38.5042 31.0652 37.3962C30.6065 36.2882 30.4867 35.0691 30.7209 33.893C30.9551 32.7168 31.5328 31.6366 32.3809 30.7888C33.229 29.941 34.3094 29.3637 35.4856 29.1299C36.6618 28.8961 37.8809 29.0163 38.9887 29.4753C40.0966 29.9343 41.0435 30.7115 41.7097 31.7086C42.3758 32.7057 42.7314 33.878 42.7314 35.0772C42.7297 36.6852 42.09 38.2267 40.9528 39.3635C39.8156 40.5004 38.2738 41.1395 36.6659 41.1407Z" fill="url(#paint0_linear_72_7)"/>
    <path d="M53.8184 34.6434C53.7971 32.9194 54.1166 31.2082 54.7587 29.6081C55.4007 28.0081 56.3526 26.5506 57.5596 25.3195C58.7667 24.0884 60.205 23.1079 61.7922 22.4345C63.3793 21.761 65.0838 21.4077 66.8079 21.395C68.5102 21.3785 70.1981 21.7081 71.7692 22.3635C73.3404 23.019 74.762 23.9868 75.9479 25.2082L72.6926 28.0582C71.9237 27.2773 71.0079 26.6562 69.9981 26.2306C68.9882 25.805 67.9042 25.5833 66.8083 25.5782C62.0348 25.5782 58.3702 29.7238 58.3702 34.6443C58.3702 39.4931 61.9963 43.7122 66.8818 43.7122C70.6566 43.7122 74.1357 41.2685 74.1357 37.9748H66.8447L67.7127 34.2018H79.0558C79.0558 43.49 74.0601 47.7825 66.9549 47.7825C65.2253 47.7977 63.5101 47.4682 61.9093 46.8132C60.3085 46.1582 58.8541 45.1909 57.6312 43.9678C56.4083 42.7447 55.4413 41.2902 54.7867 39.6892C54.132 38.0883 53.8029 36.373 53.8184 34.6434Z" fill="#FBFCFF"/>
    <path d="M86.3706 32.756C86.4505 32 86.6988 31.2716 87.0974 30.6242C87.4959 29.9768 88.0345 29.427 88.6735 29.0152C89.3125 28.6035 90.0357 28.3401 90.7898 28.2446C91.544 28.1492 92.31 28.2239 93.0315 28.4635V32.9414C92.3409 32.7026 91.616 32.5779 90.8853 32.5724C89.22 32.5724 86.444 33.4977 86.444 38.6771V47.3371H81.8926V28.6122H86.3706V32.756Z" fill="#FBFCFF"/>
    <path d="M113.788 28.6122V47.3374H109.236V44.5246C108.527 45.557 107.568 46.3935 106.449 46.9564C105.329 47.5193 104.086 47.7904 102.834 47.7446C97.2824 47.7446 93.6562 43.3769 93.6562 37.9001C93.6562 32.6088 97.1337 28.2043 102.871 28.2043C104.112 28.1734 105.341 28.4476 106.451 29.0026C107.56 29.5577 108.517 30.3767 109.236 31.3878V28.6122H113.788ZM103.758 43.9334C104.518 43.962 105.277 43.8295 105.983 43.5446C106.688 43.2596 107.326 42.8287 107.854 42.28C108.382 41.7314 108.787 41.0773 109.045 40.3609C109.302 39.6444 109.405 38.8816 109.346 38.1226C109.346 34.4965 107.015 32.0161 103.648 32.0161C100.205 32.0161 98.2443 34.7186 98.2443 37.9371C98.2444 41.2676 100.354 43.9334 103.758 43.9334Z" fill="white"/>
    <path d="M118.031 55.8122V28.6122H122.583V31.4249C123.292 30.3925 124.251 29.556 125.37 28.9931C126.49 28.4302 127.733 28.1591 128.985 28.2049C134.537 28.2049 138.163 32.5727 138.163 38.0494C138.163 43.3407 134.684 47.7452 128.948 47.7452C127.707 47.7763 126.478 47.5022 125.368 46.9471C124.259 46.3921 123.302 45.5729 122.583 44.5617V55.8122H118.031ZM128.06 32.0161C127.299 31.9877 126.541 32.1203 125.836 32.4053C125.13 32.6904 124.492 33.1213 123.965 33.67C123.437 34.2186 123.032 34.8726 122.775 35.589C122.517 36.3054 122.415 37.068 122.473 37.8269C122.473 41.453 124.805 43.9334 128.172 43.9334C131.613 43.9334 133.575 41.2309 133.575 38.0124C133.575 34.6819 131.465 32.0161 128.06 32.0161Z" fill="#FBFCFF"/>
    <path d="M141.261 47.3374V20.5816H145.812V47.3374H141.261Z" fill="#FBFCFF"/>
    <defs>
        <linearGradient id="paint0_linear_72_7" x1="34.8821" y1="17.1959" x2="5.76946" y2="51.7084" gradientUnits="userSpaceOnUse">
            <stop stop-color="#009BFC"/>
            <stop offset="1" stop-color="#008AFC"/>
        </linearGradient>
    </defs>
</svg>
