<svg version="1.1" viewBox="0.0 0.0 720.0 540.0" fill="none" stroke="none" stroke-linecap="square" stroke-miterlimit="10" xmlns:xlink="http://www.w3.org/1999/xlink" xmlns="http://www.w3.org/2000/svg"><clipPath id="p.0"><path d="m0 0l720.0 0l0 540.0l-720.0 0l0 -540.0z" clip-rule="nonzero"/></clipPath><g clip-path="url(#p.0)"><path fill="#000000" fill-opacity="0.0" d="m0 0l720.0 0l0 540.0l-720.0 0z" fill-rule="evenodd"/><path fill="#000000" fill-opacity="0.0" d="m162.27768 426.58514l0 0c0 -39.288696 32.442673 -71.13849 72.46272 -71.13849l0 0c19.218307 0 37.64949 7.494934 51.238876 20.835968c13.5894165 13.341064 21.223846 31.435425 21.223846 50.30252l0 0c0 39.288696 -32.442657 71.13849 -72.46272 71.13849l0 0c-40.02005 0 -72.46272 -31.849792 -72.46272 -71.13849z" fill-rule="evenodd"/><path stroke="#008afc" stroke-width="12.0" stroke-linejoin="round" stroke-linecap="butt" d="m162.27768 426.58514l0 0c0 -39.288696 32.442673 -71.13849 72.46272 -71.13849l0 0c19.218307 0 37.64949 7.494934 51.238876 20.835968c13.5894165 13.341064 21.223846 31.435425 21.223846 50.30252l0 0c0 39.288696 -32.442657 71.13849 -72.46272 71.13849l0 0c-40.02005 0 -72.46272 -31.849792 -72.46272 -71.13849z" fill-rule="evenodd"/><path fill="#000000" fill-opacity="0.0" d="m300.7371 127.47872l151.87177 79.2365" fill-rule="evenodd"/><path stroke="#008afc" stroke-width="12.0" stroke-linejoin="round" stroke-linecap="butt" d="m300.7371 127.47872l151.87177 79.2365" fill-rule="evenodd"/><path fill="#000000" fill-opacity="0.0" d="m303.3025 396.74707l149.30637 -89.42682" fill-rule="evenodd"/><path stroke="#008afc" stroke-width="12.0" stroke-linejoin="round" stroke-linecap="butt" d="m303.3025 396.74707l149.30637 -89.42682" fill-rule="evenodd"/><path fill="#000000" fill-opacity="0.0" d="m431.385 257.01773l0 0c0 -39.288696 32.442657 -71.13849 72.46274 -71.13849l0 0c19.218292 0 37.649506 7.494919 51.23886 20.835983c13.5894165 13.341049 21.223877 31.43541 21.223877 50.302505l0 0c0 39.288696 -32.442688 71.13849 -72.46274 71.13849l0 0c-40.02008 0 -72.46274 -31.849792 -72.46274 -71.13849z" fill-rule="evenodd"/><path stroke="#008afc" stroke-width="12.0" stroke-linejoin="round" stroke-linecap="butt" d="m431.385 257.01773l0 0c0 -39.288696 32.442657 -71.13849 72.46274 -71.13849l0 0c19.218292 0 37.649506 7.494919 51.23886 20.835983c13.5894165 13.341049 21.223877 31.43541 21.223877 50.302505l0 0c0 39.288696 -32.442688 71.13849 -72.46274 71.13849l0 0c-40.02008 0 -72.46274 -31.849792 -72.46274 -71.13849z" fill-rule="evenodd"/><path fill="#000000" fill-opacity="0.0" d="m547.83453 257.01773l0 0c0 11.118866 -4.6343384 21.782288 -12.883423 29.6445c-8.2491455 7.862213 -19.437378 12.279175 -31.103363 12.279175l0 -41.923676z" fill-rule="evenodd"/><path fill="#000000" fill-opacity="0.0" d="m547.83453 257.01773l0 0c0 11.118866 -4.6343384 21.782288 -12.883423 29.6445c-8.2491455 7.862213 -19.437378 12.279175 -31.103363 12.279175" fill-rule="evenodd"/><path stroke="#008afc" stroke-width="4.0" stroke-linejoin="round" stroke-linecap="butt" d="m547.83453 257.01773l0 0c0 11.118866 -4.6343384 21.782288 -12.883423 29.6445c-8.2491455 7.862213 -19.437378 12.279175 -31.103363 12.279175" fill-rule="evenodd"/><path fill="#000000" fill-opacity="0.0" d="m162.27768 98.24121l0 0c0 -39.288704 32.442673 -71.13849 72.46272 -71.13849l0 0c19.218307 0 37.64949 7.4949265 51.238876 20.835983c13.5894165 13.341057 21.223846 31.435413 21.223846 50.30251l0 0c0 39.28871 -32.442657 71.138504 -72.46272 71.138504l0 0c-40.02005 0 -72.46272 -31.849792 -72.46272 -71.138504z" fill-rule="evenodd"/><path stroke="#008afc" stroke-width="12.0" stroke-linejoin="round" stroke-linecap="butt" d="m162.27768 98.24121l0 0c0 -39.288704 32.442673 -71.13849 72.46272 -71.13849l0 0c19.218307 0 37.64949 7.4949265 51.238876 20.835983c13.5894165 13.341057 21.223846 31.435413 21.223846 50.30251l0 0c0 39.28871 -32.442657 71.138504 -72.46272 71.138504l0 0c-40.02005 0 -72.46272 -31.849792 -72.46272 -71.138504z" fill-rule="evenodd"/></g></svg>